<?xml version="1.0" encoding="utf-8"?>
<!-- Generator: Adobe Illustrator 21.0.0, SVG Export Plug-In . SVG Version: 6.00 Build 0)  -->
<svg version="1.1" xmlns="http://www.w3.org/2000/svg" xmlns:xlink="http://www.w3.org/1999/xlink" x="0px" y="0px"
	 viewBox="0 0 512 512" style="enable-background:new 0 0 512 512;" xml:space="preserve">
<style type="text/css">
	.st0{opacity:0.66;fill:#01A0C6;}
	.st1{opacity:0.66;fill:#FF0000;}
</style>
<g id="Layer_4">
	<path class="st0" d="M51.3,504.6c0,0,12.9-32,22.2-33.7c9.4-1.8,34-5.3,37.5-6.5c3.5-1.2,54.5-31.1,66.3-31.7
		c0,0,22.9-40.5,35.2-40.5v-24c0,0-31.7-13.5-46.9-16.4l-1.2-8.2h-14.7c0,0,10.6-25.2,12.9-35.2c0,0-20.5,28.1-27,26.4
		c0,0,14.7-17,18.2-26.4s21.7-147.8,21.7-147.8S185,88,240.7,78s74.5-7,100.9,7.6c26.4,14.7,38.1,24,45.2,85
		c7,61,22.3,93.2,27,101.5c4.7,8.2,25.8,29.3,30.5,33.4c0,0-5.9,9.4-33.4-13.5c0,0,2.3,14.7,14.7,22.3l-18.8-5.3
		c0,0-5.3,12.9-13.5,15.8c0,0,4.1,15.2,10,22.3l-15.2-0.6l-1.2,6.5l-45.2,17v17c0,0,11.7,1.2,14.1,6.5s18.8,35.2,20.5,35.2
		c1.8,0,60.4,17,68,29.9c0,0,39.3,4.1,41.1,27.6s16.1,25.8,16.1,25.8H51L51.3,504.6z"/>
</g>
<g id="Layer_3">
	<path class="st1" d="M11,504.6c0,0,12.9-32,22.2-33.7c9.4-1.8,34-5.3,37.5-6.5c3.5-1.2,54.5-31.1,66.3-31.7
		c0,0,22.9-40.5,35.2-40.5v-24c0,0-31.7-13.5-46.9-16.4l-1.2-8.2h-14.7c0,0,10.6-25.2,12.9-35.2c0,0-20.5,28.1-27,26.4
		c0,0,14.7-17,18.2-26.4c3.5-9.4,21.7-147.8,21.7-147.8S144.7,88,200.4,78s74.5-7,100.9,7.6c26.4,14.7,38.1,24,45.2,85
		c7,61,22.3,93.2,27,101.5c4.7,8.2,1.5,14.4,6.2,18.5c0,0,18.4,24.3-9.1,1.5c0,0,2.3,14.7,14.7,22.3l-18.8-5.3
		c0,0-5.3,12.9-13.5,15.8c0,0,4.1,15.2,10,22.3l-15.2-0.6l-1.2,6.5l-45.2,17v17c0,0,11.7,1.2,14.1,6.5c2.3,5.3,18.8,35.2,20.5,35.2
		s60.4,17,68,29.9c0,0,39.3,4.1,41.1,27.6s16.1,25.8,16.1,25.8H10.7L11,504.6z"/>
</g>
<g id="Layer_2">
	<path d="M30.3,504.6c0,0,12.9-32,22.2-33.7c9.4-1.8,34-5.3,37.5-6.5c3.5-1.2,54.5-31.1,66.3-31.7c0,0,22.9-40.5,35.2-40.5v-24
		c0,0-31.7-13.5-46.9-16.4l-1.2-8.2h-14.7c0,0,10.6-25.2,12.9-35.2c0,0-20.5,28.1-27,26.4c0,0,14.7-17,18.2-26.4
		c3.5-9.4,21.7-147.8,21.7-147.8S164,88,219.7,78s74.5-7,100.9,7.6c26.4,14.7,38.1,24,45.2,85c7,61,22.3,93.2,27,101.5
		c4.7,8.2,25.8,29.3,30.5,33.4c0,0-5.9,9.4-33.4-13.5c0,0,2.3,14.7,14.7,22.3l-18.8-5.3c0,0-5.3,12.9-13.5,15.8
		c0,0,4.1,15.2,10,22.3l-15.2-0.6l-1.2,6.5l-45.2,17v17c0,0,11.7,1.2,14.1,6.5s18.8,35.2,20.5,35.2s60.4,17,68,29.9
		c0,0,39.3,4.1,41.1,27.6s16.1,25.8,16.1,25.8H30L30.3,504.6z"/>
</g>
</svg>
